<svg width="83" height="88" viewBox="0 0 83 88" fill="none" xmlns="http://www.w3.org/2000/svg">
<g filter="url(#filter0_d_1405_3309)">
<path d="M37.05 31.43V46.13C37.05 47.6 37.4117 48.7317 38.135 49.525C38.8583 50.3183 39.92 50.715 41.32 50.715C42.72 50.715 43.7933 50.3183 44.54 49.525C45.2867 48.7317 45.66 47.6 45.66 46.13V31.43H51.645V46.095C51.645 48.2883 51.1783 50.1433 50.245 51.66C49.3117 53.1767 48.0517 54.32 46.465 55.09C44.9017 55.86 43.1517 56.245 41.215 56.245C39.2783 56.245 37.54 55.8717 36 55.125C34.4833 54.355 33.2817 53.2117 32.395 51.695C31.5083 50.155 31.065 48.2883 31.065 46.095V31.43H37.05Z" fill="white"/>
</g>
<defs>
<filter id="filter0_d_1405_3309" x="0.0649414" y="0.430176" width="82.5801" height="86.8149" filterUnits="userSpaceOnUse" color-interpolation-filters="sRGB">
<feFlood flood-opacity="0" result="BackgroundImageFix"/>
<feColorMatrix in="SourceAlpha" type="matrix" values="0 0 0 0 0 0 0 0 0 0 0 0 0 0 0 0 0 0 127 0" result="hardAlpha"/>
<feOffset/>
<feGaussianBlur stdDeviation="15.5"/>
<feComposite in2="hardAlpha" operator="out"/>
<feColorMatrix type="matrix" values="0 0 0 0 0.933333 0 0 0 0 0.933333 0 0 0 0 0.933333 0 0 0 0.75 0"/>
<feBlend mode="normal" in2="BackgroundImageFix" result="effect1_dropShadow_1405_3309"/>
<feBlend mode="normal" in="SourceGraphic" in2="effect1_dropShadow_1405_3309" result="shape"/>
</filter>
</defs>
</svg>
