<svg width="172" height="77" viewBox="0 0 172 77" fill="none" xmlns="http://www.w3.org/2000/svg">
<g filter="url(#filter0_d_407_1840)">
<path d="M31.05 26.43V41.13C31.05 42.6 31.4117 43.7317 32.135 44.525C32.8583 45.3183 33.92 45.715 35.32 45.715C36.72 45.715 37.7933 45.3183 38.54 44.525C39.2867 43.7317 39.66 42.6 39.66 41.13V26.43H45.645V41.095C45.645 43.2883 45.1783 45.1433 44.245 46.66C43.3117 48.1767 42.0517 49.32 40.465 50.09C38.9017 50.86 37.1517 51.245 35.215 51.245C33.2783 51.245 31.54 50.8717 30 50.125C28.4833 49.355 27.2817 48.2117 26.395 46.695C25.5083 45.155 25.065 43.2883 25.065 41.095V26.43H31.05ZM61.7477 31.26C64.0344 31.26 65.8544 32.0067 67.2077 33.5C68.5844 34.97 69.2727 37 69.2727 39.59V51H63.3227V40.395C63.3227 39.0883 62.9844 38.0733 62.3077 37.35C61.6311 36.6267 60.7211 36.265 59.5777 36.265C58.4344 36.265 57.5244 36.6267 56.8477 37.35C56.1711 38.0733 55.8327 39.0883 55.8327 40.395V51H49.8477V31.47H55.8327V34.06C56.4394 33.1967 57.2561 32.52 58.2827 32.03C59.3094 31.5167 60.4644 31.26 61.7477 31.26ZM79.4167 25.1V51H73.4317V25.1H79.4167ZM92.644 51.28C90.7307 51.28 89.004 50.8717 87.464 50.055C85.9473 49.2383 84.7457 48.0717 83.859 46.555C82.9957 45.0383 82.564 43.265 82.564 41.235C82.564 39.2283 83.0073 37.4667 83.894 35.95C84.7807 34.41 85.994 33.2317 87.534 32.415C89.074 31.5983 90.8007 31.19 92.714 31.19C94.6273 31.19 96.354 31.5983 97.894 32.415C99.434 33.2317 100.647 34.41 101.534 35.95C102.421 37.4667 102.864 39.2283 102.864 41.235C102.864 43.2417 102.409 45.015 101.499 46.555C100.612 48.0717 99.3873 49.2383 97.824 50.055C96.284 50.8717 94.5573 51.28 92.644 51.28ZM92.644 46.1C93.7873 46.1 94.7557 45.68 95.549 44.84C96.3657 44 96.774 42.7983 96.774 41.235C96.774 39.6717 96.3773 38.47 95.584 37.63C94.814 36.79 93.8573 36.37 92.714 36.37C91.5473 36.37 90.579 36.79 89.809 37.63C89.039 38.4467 88.654 39.6483 88.654 41.235C88.654 42.7983 89.0273 44 89.774 44.84C90.544 45.68 91.5007 46.1 92.644 46.1ZM104.849 41.235C104.849 39.205 105.257 37.4317 106.074 35.915C106.914 34.3983 108.069 33.2317 109.539 32.415C111.032 31.5983 112.736 31.19 114.649 31.19C117.099 31.19 119.141 31.8317 120.774 33.115C122.431 34.3983 123.516 36.2067 124.029 38.54H117.659C117.122 37.0467 116.084 36.3 114.544 36.3C113.447 36.3 112.572 36.7317 111.919 37.595C111.266 38.435 110.939 39.6483 110.939 41.235C110.939 42.8217 111.266 44.0467 111.919 44.91C112.572 45.75 113.447 46.17 114.544 46.17C116.084 46.17 117.122 45.4233 117.659 43.93H124.029C123.516 46.2167 122.431 48.0133 120.774 49.32C119.117 50.6267 117.076 51.28 114.649 51.28C112.736 51.28 111.032 50.8717 109.539 50.055C108.069 49.2383 106.914 48.0717 106.074 46.555C105.257 45.0383 104.849 43.265 104.849 41.235ZM139.166 51L133.216 42.81V51H127.231V25.1H133.216V39.415L139.131 31.47H146.516L138.396 41.27L146.586 51H139.166Z" fill="white"/>
</g>
<defs>
<filter id="filter0_d_407_1840" x="0.0649414" y="0.100098" width="171.521" height="76.1797" filterUnits="userSpaceOnUse" color-interpolation-filters="sRGB">
<feFlood flood-opacity="0" result="BackgroundImageFix"/>
<feColorMatrix in="SourceAlpha" type="matrix" values="0 0 0 0 0 0 0 0 0 0 0 0 0 0 0 0 0 0 127 0" result="hardAlpha"/>
<feOffset/>
<feGaussianBlur stdDeviation="12.5"/>
<feComposite in2="hardAlpha" operator="out"/>
<feColorMatrix type="matrix" values="0 0 0 0 0.933333 0 0 0 0 0.933333 0 0 0 0 0.933333 0 0 0 0.75 0"/>
<feBlend mode="normal" in2="BackgroundImageFix" result="effect1_dropShadow_407_1840"/>
<feBlend mode="normal" in="SourceGraphic" in2="effect1_dropShadow_407_1840" result="shape"/>
</filter>
</defs>
</svg>
